<?xml version="1.0" standalone="no"?>
<!DOCTYPE svg PUBLIC "-//W3C//DTD SVG 20010904//EN"
 "http://www.w3.org/TR/2001/REC-SVG-20010904/DTD/svg10.dtd">
<svg version="1.0" xmlns="http://www.w3.org/2000/svg"
 width="50.000000pt" height="50.000000pt" viewBox="0 0 50.000000 50.000000"
 preserveAspectRatio="xMidYMid meet">

<g transform="translate(0.000000,50.000000) scale(0.100000,-0.100000)"
fill="#000000" stroke="none">
<path d="M155 456 c-60 -28 -87 -56 -114 -116 -36 -79 -19 -183 42 -249 33
-36 115 -71 167 -71 52 0 134 35 167 71 34 37 63 110 63 159 0 52 -35 134 -71
167 -37 34 -110 63 -159 63 -27 0 -65 -10 -95 -24z m65 -69 c0 -27 -50 -53
-76 -39 -14 8 -12 12 12 29 24 17 42 26 62 32 1 1 2 -9 2 -22z m40 -27 c0 -64
19 -76 73 -49 55 28 67 18 18 -14 -53 -35 -53 -59 -1 -93 52 -34 42 -50 -12
-19 -58 33 -78 21 -78 -45 0 -28 -4 -50 -10 -50 -5 0 -10 22 -10 50 0 64 -19
76 -73 49 -55 -28 -67 -18 -18 14 25 17 41 35 41 47 0 12 -16 30 -41 47 -49
32 -37 42 18 14 54 -27 73 -15 73 49 0 28 5 50 10 50 6 0 10 -22 10 -50z m84
17 c24 -17 26 -21 12 -29 -26 -14 -76 12 -76 39 0 26 16 23 64 -10z m-219
-128 c0 -32 -4 -44 -15 -44 -16 0 -26 54 -16 82 12 30 31 6 31 -38z m280 0 c0
-32 -4 -44 -15 -44 -16 0 -26 54 -16 82 12 30 31 6 31 -38z m-212 -101 c17 -9
27 -21 27 -35 0 -25 -16 -23 -63 10 -22 15 -26 22 -15 28 17 11 19 11 51 -3z
m165 3 c11 -6 7 -13 -15 -28 -47 -33 -63 -35 -63 -10 0 31 50 56 78 38z"/>
<path d="M220 275 c-15 -18 -10 -45 13 -59 34 -22 73 27 47 59 -16 19 -44 19
-60 0z m46 -16 c10 -17 -13 -36 -27 -22 -12 12 -4 33 11 33 5 0 12 -5 16 -11z"/>
</g>
</svg>
