<svg width="23" height="16" viewBox="0 0 23 16" fill="none" xmlns="http://www.w3.org/2000/svg">
<path d="M21.9923 8.70711C22.3828 8.31658 22.3828 7.68342 21.9923 7.29289L15.6283 0.928932C15.2378 0.538407 14.6046 0.538407 14.2141 0.928932C13.8236 1.31946 13.8236 1.95262 14.2141 2.34315L19.8709 8L14.2141 13.6569C13.8236 14.0474 13.8236 14.6805 14.2141 15.0711C14.6046 15.4616 15.2378 15.4616 15.6283 15.0711L21.9923 8.70711ZM1.15612 7C0.603839 7 0.156124 7.44771 0.156124 8C0.156124 8.55228 0.603839 9 1.15612 9L1.15612 7ZM21.2852 7L1.15612 7L1.15612 9L21.2852 9L21.2852 7Z" fill="#1E1B1B"/>
</svg>
