<svg width="226" height="129" viewBox="0 0 226 129" fill="none" xmlns="http://www.w3.org/2000/svg">
<path d="M70.197 54.5134H74.004V72.992H70.197V54.5134Z" fill="#1E1B1B"/>
<path d="M76.1356 66.6618C76.1356 65.3323 76.5273 64.0328 77.2611 62.9279C77.9948 61.8231 79.0376 60.9626 80.2571 60.4556C81.4767 59.9486 82.8182 59.8179 84.1115 60.0801C85.4049 60.3423 86.5919 60.9855 87.522 61.9283C88.4522 62.871 89.0837 64.0709 89.3365 65.3757C89.5892 66.6806 89.4518 68.0316 88.9417 69.2577C88.4317 70.4838 87.5718 71.5296 86.4713 72.2627C85.3707 72.9958 84.0789 73.3831 82.7597 73.3755C81.8847 73.3824 81.0171 73.2131 80.2078 72.8777C79.3986 72.5423 78.664 72.0474 78.047 71.4221C77.43 70.7968 76.9432 70.0536 76.6149 69.2362C76.2867 68.4188 76.1238 67.5435 76.1356 66.6618ZM85.6783 66.6618C85.6633 66.0887 85.481 65.5327 85.1541 65.0634C84.8272 64.5941 84.3703 64.2324 83.8405 64.0234C83.3107 63.8145 82.7315 63.7676 82.1754 63.8886C81.6192 64.0096 81.1109 64.2932 80.7138 64.7038C80.3168 65.1145 80.0487 65.634 79.9431 66.1974C79.8375 66.7607 79.899 67.343 80.1201 67.8713C80.3411 68.3996 80.7118 68.8505 81.1858 69.1676C81.6598 69.4848 82.2161 69.654 82.785 69.6542C83.1724 69.6618 83.5572 69.5888 83.9153 69.4398C84.2734 69.2907 84.5971 69.0689 84.8663 68.788C85.1355 68.5072 85.3442 68.1734 85.4796 67.8076C85.6149 67.4417 85.6739 67.0517 85.6529 66.6618H85.6783Z" fill="#1E1B1B"/>
<path d="M104.447 60.332V72.3655C104.447 76.6111 101.147 78.4142 97.8099 78.4142C96.6327 78.5115 95.452 78.2758 94.4005 77.7336C93.349 77.1914 92.4686 76.3642 91.8584 75.3451L95.0689 73.478C95.3291 74.0066 95.7429 74.4428 96.2553 74.7283C96.7676 75.0139 97.3542 75.1354 97.9368 75.0765C98.3079 75.1226 98.6846 75.0855 99.0398 74.9678C99.3951 74.8501 99.7201 74.6547 99.9917 74.3957C100.263 74.1366 100.475 73.8203 100.611 73.4694C100.747 73.1184 100.805 72.7414 100.779 72.3655V71.2018C100.336 71.743 99.7742 72.1728 99.1376 72.4569C98.501 72.7411 97.8074 72.8718 97.112 72.8386C95.4292 72.8386 93.8154 72.165 92.6255 70.9659C91.4356 69.7668 90.7671 68.1404 90.7671 66.4447C90.7671 64.7489 91.4356 63.1225 92.6255 61.9234C93.8154 60.7243 95.4292 60.0507 97.112 60.0507C97.8074 60.0176 98.501 60.1482 99.1376 60.4324C99.7742 60.7165 100.336 61.1463 100.779 61.6875V60.4088L104.447 60.332ZM100.779 66.4063C100.805 65.7945 100.648 65.189 100.329 64.6678C100.01 64.1465 99.5437 63.7333 98.9899 63.4813C98.4361 63.2293 97.8201 63.15 97.2212 63.2535C96.6223 63.3571 96.0679 63.6389 95.6292 64.0626C95.1905 64.4862 94.8876 65.0325 94.7594 65.6311C94.6312 66.2296 94.6837 66.8532 94.91 67.4214C95.1363 67.9897 95.5261 68.4768 96.0293 68.8201C96.5325 69.1633 97.1261 69.347 97.7338 69.3475C98.1303 69.3763 98.5283 69.321 98.9023 69.1851C99.2763 69.0492 99.6178 68.8357 99.9048 68.5586C100.192 68.2814 100.418 67.9466 100.569 67.5759C100.719 67.2052 100.791 66.8067 100.779 66.4063Z" fill="#1E1B1B"/>
<path d="M106.591 66.6619C106.591 65.3335 106.982 64.035 107.715 62.9307C108.447 61.8263 109.489 60.9658 110.707 60.4581C111.925 59.9503 113.265 59.8181 114.558 60.0782C115.85 60.3383 117.037 60.979 117.968 61.9192C118.9 62.8594 119.533 64.0568 119.789 65.36C120.044 66.6632 119.911 68.0134 119.404 69.24C118.898 70.4665 118.042 71.5142 116.945 72.2503C115.848 72.9865 114.559 73.3781 113.24 73.3756C112.364 73.3841 111.494 73.2162 110.683 72.8817C109.871 72.5472 109.134 72.0528 108.515 71.4275C107.896 70.8022 107.407 70.0586 107.076 69.2402C106.746 68.4219 106.581 67.5453 106.591 66.6619ZM116.134 66.6619C116.119 66.0882 115.936 65.5317 115.609 65.0622C115.281 64.5927 114.823 64.2309 114.293 64.0224C113.762 63.8138 113.183 63.7677 112.626 63.8897C112.07 64.0118 111.561 64.2966 111.165 64.7085C110.768 65.1204 110.501 65.6411 110.397 66.2053C110.293 66.7695 110.356 67.3522 110.579 67.8803C110.802 68.4083 111.175 68.8584 111.651 69.1739C112.126 69.4895 112.684 69.6566 113.253 69.6543C113.641 69.6619 114.025 69.5889 114.383 69.4399C114.741 69.2908 115.065 69.069 115.334 68.7881C115.604 68.5073 115.812 68.1735 115.948 67.8077C116.083 67.4418 116.142 67.0518 116.121 66.6619H116.134Z" fill="#1E1B1B"/>
<path d="M121.654 56.943C121.654 56.4928 121.786 56.0527 122.034 55.6784C122.283 55.3041 122.635 55.0123 123.048 54.84C123.461 54.6677 123.915 54.6227 124.353 54.7105C124.791 54.7983 125.194 55.0151 125.51 55.3334C125.826 55.6518 126.041 56.0574 126.128 56.4989C126.215 56.9405 126.17 57.3982 125.999 57.8141C125.828 58.23 125.539 58.5855 125.167 58.8356C124.796 59.0858 124.359 59.2193 123.913 59.2193C123.316 59.2126 122.745 58.9707 122.323 58.5452C121.9 58.1198 121.66 57.5446 121.654 56.943ZM122.022 60.3318H125.829V72.9919H122.022V60.3318Z" fill="#1E1B1B"/>
<path d="M142.122 66.662C142.165 67.504 142.042 68.3462 141.761 69.14C141.479 69.9339 141.044 70.6639 140.482 71.2878C139.919 71.9118 139.24 72.4175 138.483 72.7758C137.725 73.1342 136.905 73.338 136.069 73.3757C135.36 73.4232 134.65 73.3088 133.99 73.0409C133.331 72.7729 132.741 72.3585 132.262 71.8284V78.0817H128.456V60.332H132.262V61.5213C132.741 60.9928 133.332 60.5802 133.991 60.3144C134.651 60.0487 135.361 59.9367 136.069 59.9867C136.902 60.0245 137.719 60.2271 138.473 60.583C139.228 60.939 139.906 61.4412 140.468 62.061C141.03 62.6809 141.465 63.4063 141.749 64.1957C142.033 64.9851 142.16 65.8232 142.122 66.662ZM138.316 66.662C138.301 66.0681 138.112 65.4918 137.773 65.0055C137.435 64.5191 136.961 64.1443 136.412 63.928C135.863 63.7117 135.263 63.6635 134.687 63.7895C134.11 63.9155 133.584 64.2101 133.173 64.6363C132.762 65.0625 132.486 65.6015 132.378 66.1855C132.27 66.7696 132.335 67.3728 132.566 67.9196C132.796 68.4663 133.182 68.9323 133.674 69.2591C134.167 69.586 134.744 69.759 135.333 69.7567C135.737 69.774 136.14 69.705 136.516 69.5544C136.891 69.4038 137.231 69.1748 137.512 68.8826C137.794 68.5904 138.011 68.2415 138.15 67.8588C138.288 67.4761 138.344 67.0683 138.316 66.662Z" fill="#1E1B1B"/>
<path d="M153.708 69.1941C153.708 72.1097 151.17 73.3502 148.48 73.3502C147.383 73.4497 146.281 73.2153 145.317 72.6773C144.354 72.1393 143.572 71.3224 143.074 70.3322L146.348 68.4652C146.478 68.9215 146.759 69.319 147.145 69.5914C147.531 69.8637 147.997 69.9943 148.467 69.9614C149.368 69.9614 149.825 69.68 149.825 69.1685C149.825 67.7746 143.645 68.5163 143.645 64.1301C143.645 61.3679 145.955 59.9868 148.569 59.9868C149.563 59.9419 150.55 60.1691 151.426 60.6442C152.301 61.1193 153.033 61.8245 153.543 62.685L150.269 64.4242C150.125 64.0943 149.888 63.8136 149.589 63.6162C149.289 63.4188 148.939 63.313 148.582 63.3116C147.922 63.3116 147.528 63.5674 147.528 64.015C147.528 65.4728 153.708 64.5137 153.708 69.1941Z" fill="#1E1B1B"/>
<path d="M167.502 60.332V72.9921H163.695V71.8028C163.263 72.3292 162.713 72.7459 162.092 73.0191C161.47 73.2923 160.794 73.4145 160.117 73.3757C157.579 73.3757 155.409 71.5471 155.409 68.1327V60.332H159.216V67.5572C159.186 67.8593 159.221 68.1643 159.32 68.4512C159.418 68.7381 159.577 69 159.786 69.2188C159.995 69.4377 160.248 69.6083 160.529 69.7188C160.809 69.8294 161.11 69.8772 161.411 69.859C162.781 69.859 163.746 69.0406 163.746 67.3015V60.332H167.502Z" fill="#1E1B1B"/>
<path d="M189.074 65.2169V72.992H185.267V65.5494C185.267 64.2706 184.671 63.4778 183.465 63.4778C182.26 63.4778 181.498 64.3601 181.498 65.8563V72.992H177.692V65.5494C177.692 64.2706 177.095 63.4778 175.89 63.4778C174.684 63.4778 173.923 64.3601 173.923 65.8563V72.992H170.116V60.3319H173.923V61.4956C174.317 60.9815 174.832 60.5744 175.421 60.3109C176.01 60.0475 176.655 59.936 177.298 59.9866C177.942 59.9528 178.583 60.0883 179.16 60.3797C179.736 60.6712 180.227 61.1086 180.585 61.6491C181.003 61.0844 181.556 60.6358 182.193 60.345C182.83 60.0543 183.53 59.931 184.227 59.9866C187.196 59.9866 189.074 62.0583 189.074 65.2169Z" fill="#1E1B1B"/>
<path d="M47.5201 51.1885V45.7537H30.5159V83.0944H47.5201V77.6596C44.0368 77.6596 40.6962 76.2651 38.2331 73.783C35.77 71.3008 34.3862 67.9343 34.3862 64.424C34.3862 60.9138 35.77 57.5473 38.2331 55.0651C40.6962 52.583 44.0368 51.1885 47.5201 51.1885Z" fill="#1E1B1B"/>
<path d="M47.5203 51.1885V77.6595C51.0036 77.6595 54.3442 76.2651 56.8073 73.7829C59.2704 71.3008 60.6542 67.9343 60.6542 64.424C60.6542 60.9137 59.2704 57.5472 56.8073 55.0651C54.3442 52.5829 51.0036 51.1885 47.5203 51.1885Z" fill="#1E1B1B"/>
<path d="M192.272 60.2551C193.814 60.2551 195.064 58.9955 195.064 57.4418C195.064 55.888 193.814 54.6284 192.272 54.6284C190.731 54.6284 189.481 55.888 189.481 57.4418C189.481 58.9955 190.731 60.2551 192.272 60.2551Z" fill="#1E1B1B"/>
</svg>
