<svg width="542" height="362" viewBox="0 0 542 362" fill="none" xmlns="http://www.w3.org/2000/svg">
<g filter="url(#filter0_d_482_1627)">
<path d="M130 153C130 124.833 152.833 102 181 102H360.635C388.802 102 411.635 124.833 411.635 153C411.635 181.167 388.802 204 360.635 204H181C152.833 204 130 181.167 130 153Z" fill="url(#paint0_linear_482_1627)" shape-rendering="crispEdges"/>
<path d="M181 96C149.52 96 124 121.52 124 153C124 184.48 149.52 210 181 210H360.635C392.115 210 417.635 184.48 417.635 153C417.635 121.52 392.115 96 360.635 96H181Z" stroke="#E1E1E1" stroke-opacity="0.43" stroke-width="12" shape-rendering="crispEdges"/>
</g>
<defs>
<filter id="filter0_d_482_1627" x="0" y="0" width="541.635" height="362" filterUnits="userSpaceOnUse" color-interpolation-filters="sRGB">
<feFlood flood-opacity="0" result="BackgroundImageFix"/>
<feColorMatrix in="SourceAlpha" type="matrix" values="0 0 0 0 0 0 0 0 0 0 0 0 0 0 0 0 0 0 127 0" result="hardAlpha"/>
<feOffset dy="28"/>
<feGaussianBlur stdDeviation="59"/>
<feComposite in2="hardAlpha" operator="out"/>
<feColorMatrix type="matrix" values="0 0 0 0 0.427425 0 0 0 0 0.42375 0 0 0 0 0.45 0 0 0 0.12 0"/>
<feBlend mode="normal" in2="BackgroundImageFix" result="effect1_dropShadow_482_1627"/>
<feBlend mode="normal" in="SourceGraphic" in2="effect1_dropShadow_482_1627" result="shape"/>
</filter>
<linearGradient id="paint0_linear_482_1627" x1="246.933" y1="-8.99999" x2="352.852" y2="325.707" gradientUnits="userSpaceOnUse">
<stop stop-color="white"/>
<stop offset="1" stop-color="white"/>
</linearGradient>
</defs>
</svg>
